<svg width="14" height="13" viewBox="0 0 14 13" fill="none" xmlns="http://www.w3.org/2000/svg">
<path d="M1.17165 8.72727L2.10489 6.09801H5.76966L6.7029 8.72727H7.53813L4.36341 0H3.51114L0.336426 8.72727H1.17165ZM2.36057 5.3821L3.90745 1.03551H3.96711L5.51398 5.3821H2.36057Z" fill="#525A5F"/>
<path d="M10.7043 8.87642C11.7952 8.87642 12.46 8.27131 12.7327 7.69176H12.7796V8.72727H13.5381V4.28267C13.5381 2.52699 12.2171 2.09233 11.2157 2.09233C10.2143 2.09233 9.18302 2.48864 8.73983 3.55824L9.46 3.81818C9.69864 3.25568 10.291 2.77415 11.237 2.77415C12.2299 2.77415 12.7796 3.3196 12.7796 4.21449V4.3679C12.7796 4.86222 12.166 4.87074 11.0665 5.0071C9.58785 5.19034 8.55233 5.60369 8.55233 6.89915C8.55233 8.16051 9.5154 8.87642 10.7043 8.87642ZM10.8066 8.18182C9.95006 8.18182 9.31086 7.72585 9.31086 6.93324C9.31086 6.14062 9.95858 5.80824 11.0665 5.67188C11.6035 5.60795 12.558 5.48864 12.7796 5.27131V6.21733C12.7796 7.29119 12.0168 8.18182 10.8066 8.18182Z" fill="#525A5F"/>
<rect opacity="0.8" y="12" width="14" height="1" fill="#525A5F"/>
</svg>
