<svg width="28" height="20" viewBox="0 0 28 20" fill="none" xmlns="http://www.w3.org/2000/svg">
<rect x="20.7175" y="0.130859" width="9.47815" height="15.733" rx="4.73908" transform="rotate(45 20.7175 0.130859)" fill="#FCFBF7" stroke="black" stroke-width="2"/>
<rect x="11.4851" y="4.12109" width="8" height="12" rx="4" transform="rotate(45 11.4851 4.12109)" stroke="#FCFBF7" stroke-width="4"/>
<rect x="11.5752" y="2.11328" width="9.35575" height="15.348" rx="4.67787" transform="rotate(45 11.5752 2.11328)" stroke="black" stroke-width="2"/>
<path fill-rule="evenodd" clip-rule="evenodd" d="M18 3.6585C16.6708 3.61875 15.3287 4.10615 14.3141 5.12072L11.4857 7.94914C10.633 8.80184 10.1526 9.8859 10.0447 10.9992H12.0605C12.1582 10.4003 12.438 9.82525 12.8999 9.36336L15.7283 6.53493C16.3524 5.91088 17.1829 5.61924 18 5.66V3.6585Z" fill="black"/>
<path fill-rule="evenodd" clip-rule="evenodd" d="M10.9998 7.02094L13.6071 4.41361C13.7542 4.2665 13.9071 4.12863 14.065 4L16.0243 4C15.4014 4.24384 14.8175 4.61741 14.3142 5.12071L11.4858 7.94914C11.3075 8.12742 11.1455 8.31582 10.9998 8.51248L10.9998 7.02094ZM16.9998 6.84499C16.7956 6.94085 16.6043 7.07321 16.4355 7.24203L13.6775 10H12.4136C12.5434 9.77218 12.7056 9.55774 12.9 9.36335L15.7284 6.53493C16.0956 6.16771 16.5343 5.9156 16.9998 5.77858V6.84499Z" fill="#FCFBF7"/>
</svg>
