<svg width="30" height="20" viewBox="0 0 30 20" fill="none" xmlns="http://www.w3.org/2000/svg">
<path d="M18 13L23 18L28 13" stroke="black" stroke-width="2" stroke-linecap="square"/>
<path d="M22 18C22 18.5523 22.4477 19 23 19C23.5523 19 24 18.5523 24 18L22 18ZM24 2L24 1L22 1L22 2L24 2ZM24 18L24 2L22 2L22 18L24 18Z" fill="black"/>
<path d="M12 7L7 2L2 7" stroke="black" stroke-width="2" stroke-linecap="square"/>
<path d="M8 2C8 1.44771 7.55229 1 7 1C6.44772 1 6 1.44771 6 2L8 2ZM6 18L6 19L8 19L8 18L6 18ZM6 2L6 18L8 18L8 2L6 2Z" fill="black"/>
</svg>
